<svg id="visual" viewBox="0 0 900 200" width="900" height="200" xmlns="http://www.w3.org/2000/svg" xmlns:xlink="http://www.w3.org/1999/xlink" version="1.1"><path d="M0 119L15 123C30 127 60 135 90 133.8C120 132.7 150 122.3 180 117.5C210 112.7 240 113.3 270 119.8C300 126.3 330 138.7 360 140.2C390 141.7 420 132.3 450 124.7C480 117 510 111 540 107.3C570 103.7 600 102.3 630 101.5C660 100.7 690 100.3 720 113.5C750 126.7 780 153.3 810 160.2C840 167 870 154 885 147.5L900 141L900 0L885 0C870 0 840 0 810 0C780 0 750 0 720 0C690 0 660 0 630 0C600 0 570 0 540 0C510 0 480 0 450 0C420 0 390 0 360 0C330 0 300 0 270 0C240 0 210 0 180 0C150 0 120 0 90 0C60 0 30 0 15 0L0 0Z" fill="#244d61"></path><path d="M0 117L15 114.7C30 112.3 60 107.7 90 107.8C120 108 150 113 180 119.7C210 126.3 240 134.7 270 138.2C300 141.7 330 140.3 360 131.8C390 123.3 420 107.7 450 99.2C480 90.7 510 89.3 540 98.8C570 108.3 600 128.7 630 135.5C660 142.3 690 135.7 720 129.2C750 122.7 780 116.3 810 110.7C840 105 870 100 885 97.5L900 95L900 0L885 0C870 0 840 0 810 0C780 0 750 0 720 0C690 0 660 0 630 0C600 0 570 0 540 0C510 0 480 0 450 0C420 0 390 0 360 0C330 0 300 0 270 0C240 0 210 0 180 0C150 0 120 0 90 0C60 0 30 0 15 0L0 0Z" fill="#436174"></path><path d="M0 102L15 104.3C30 106.7 60 111.3 90 113.5C120 115.7 150 115.3 180 113.7C210 112 240 109 270 104.7C300 100.3 330 94.7 360 99.3C390 104 420 119 450 115.8C480 112.7 510 91.3 540 82.5C570 73.7 600 77.3 630 83.7C660 90 690 99 720 101.8C750 104.7 780 101.3 810 105.2C840 109 870 120 885 125.5L900 131L900 0L885 0C870 0 840 0 810 0C780 0 750 0 720 0C690 0 660 0 630 0C600 0 570 0 540 0C510 0 480 0 450 0C420 0 390 0 360 0C330 0 300 0 270 0C240 0 210 0 180 0C150 0 120 0 90 0C60 0 30 0 15 0L0 0Z" fill="#5f7688"></path><path d="M0 94L15 95.2C30 96.3 60 98.7 90 92.7C120 86.7 150 72.3 180 74.5C210 76.7 240 95.3 270 102.5C300 109.7 330 105.3 360 103.7C390 102 420 103 450 99.2C480 95.3 510 86.7 540 80.3C570 74 600 70 630 75.7C660 81.3 690 96.7 720 104C750 111.3 780 110.7 810 103C840 95.3 870 80.7 885 73.3L900 66L900 0L885 0C870 0 840 0 810 0C780 0 750 0 720 0C690 0 660 0 630 0C600 0 570 0 540 0C510 0 480 0 450 0C420 0 390 0 360 0C330 0 300 0 270 0C240 0 210 0 180 0C150 0 120 0 90 0C60 0 30 0 15 0L0 0Z" fill="#7b8c9c"></path><path d="M0 97L15 94.7C30 92.3 60 87.7 90 87.3C120 87 150 91 180 91.5C210 92 240 89 270 87C300 85 330 84 360 78.2C390 72.3 420 61.7 450 56C480 50.3 510 49.7 540 50.8C570 52 600 55 630 60.3C660 65.7 690 73.3 720 73.3C750 73.3 780 65.7 810 64.5C840 63.3 870 68.7 885 71.3L900 74L900 0L885 0C870 0 840 0 810 0C780 0 750 0 720 0C690 0 660 0 630 0C600 0 570 0 540 0C510 0 480 0 450 0C420 0 390 0 360 0C330 0 300 0 270 0C240 0 210 0 180 0C150 0 120 0 90 0C60 0 30 0 15 0L0 0Z" fill="#97a2b0"></path><path d="M0 41L15 46.3C30 51.7 60 62.3 90 61C120 59.7 150 46.3 180 46C210 45.7 240 58.3 270 62.8C300 67.3 330 63.7 360 63.7C390 63.7 420 67.3 450 66.8C480 66.3 510 61.7 540 56.8C570 52 600 47 630 44.5C660 42 690 42 720 42C750 42 780 42 810 46.8C840 51.7 870 61.3 885 66.2L900 71L900 0L885 0C870 0 840 0 810 0C780 0 750 0 720 0C690 0 660 0 630 0C600 0 570 0 540 0C510 0 480 0 450 0C420 0 390 0 360 0C330 0 300 0 270 0C240 0 210 0 180 0C150 0 120 0 90 0C60 0 30 0 15 0L0 0Z" fill="#b3bac4"></path><path d="M0 44L15 43.7C30 43.3 60 42.7 90 40C120 37.3 150 32.7 180 34C210 35.3 240 42.7 270 42.2C300 41.7 330 33.3 360 34C390 34.7 420 44.3 450 45.3C480 46.3 510 38.7 540 36.8C570 35 600 39 630 40.3C660 41.7 690 40.3 720 40C750 39.7 780 40.3 810 40.8C840 41.3 870 41.7 885 41.8L900 42L900 0L885 0C870 0 840 0 810 0C780 0 750 0 720 0C690 0 660 0 630 0C600 0 570 0 540 0C510 0 480 0 450 0C420 0 390 0 360 0C330 0 300 0 270 0C240 0 210 0 180 0C150 0 120 0 90 0C60 0 30 0 15 0L0 0Z" fill="#ced2d8"></path><path d="M0 26L15 23C30 20 60 14 90 15.8C120 17.7 150 27.3 180 30.5C210 33.7 240 30.3 270 27.7C300 25 330 23 360 20.5C390 18 420 15 450 14.2C480 13.3 510 14.7 540 18.3C570 22 600 28 630 28.3C660 28.7 690 23.3 720 23C750 22.7 780 27.3 810 29.7C840 32 870 32 885 32L900 32L900 0L885 0C870 0 840 0 810 0C780 0 750 0 720 0C690 0 660 0 630 0C600 0 570 0 540 0C510 0 480 0 450 0C420 0 390 0 360 0C330 0 300 0 270 0C240 0 210 0 180 0C150 0 120 0 90 0C60 0 30 0 15 0L0 0Z" fill="#eaebed"></path></svg>