<svg id="visual" viewBox="0 0 900 200" width="900" height="200" xmlns="http://www.w3.org/2000/svg" xmlns:xlink="http://www.w3.org/1999/xlink" version="1.1"><path d="M0 79L15 75C30 71 60 63 90 64.2C120 65.3 150 75.7 180 80.5C210 85.3 240 84.7 270 78.2C300 71.7 330 59.3 360 57.8C390 56.3 420 65.7 450 73.3C480 81 510 87 540 90.7C570 94.3 600 95.7 630 96.5C660 97.3 690 97.7 720 84.5C750 71.3 780 44.7 810 37.8C840 31 870 44 885 50.5L900 57L900 201L885 201C870 201 840 201 810 201C780 201 750 201 720 201C690 201 660 201 630 201C600 201 570 201 540 201C510 201 480 201 450 201C420 201 390 201 360 201C330 201 300 201 270 201C240 201 210 201 180 201C150 201 120 201 90 201C60 201 30 201 15 201L0 201Z" fill="#244d61"></path><path d="M0 81L15 83.3C30 85.7 60 90.3 90 90.2C120 90 150 85 180 78.3C210 71.7 240 63.3 270 59.8C300 56.3 330 57.7 360 66.2C390 74.7 420 90.3 450 98.8C480 107.3 510 108.7 540 99.2C570 89.7 600 69.3 630 62.5C660 55.7 690 62.3 720 68.8C750 75.3 780 81.7 810 87.3C840 93 870 98 885 100.5L900 103L900 201L885 201C870 201 840 201 810 201C780 201 750 201 720 201C690 201 660 201 630 201C600 201 570 201 540 201C510 201 480 201 450 201C420 201 390 201 360 201C330 201 300 201 270 201C240 201 210 201 180 201C150 201 120 201 90 201C60 201 30 201 15 201L0 201Z" fill="#436174"></path><path d="M0 96L15 93.7C30 91.3 60 86.7 90 84.5C120 82.3 150 82.7 180 84.3C210 86 240 89 270 93.3C300 97.7 330 103.3 360 98.7C390 94 420 79 450 82.2C480 85.3 510 106.7 540 115.5C570 124.3 600 120.7 630 114.3C660 108 690 99 720 96.2C750 93.3 780 96.7 810 92.8C840 89 870 78 885 72.5L900 67L900 201L885 201C870 201 840 201 810 201C780 201 750 201 720 201C690 201 660 201 630 201C600 201 570 201 540 201C510 201 480 201 450 201C420 201 390 201 360 201C330 201 300 201 270 201C240 201 210 201 180 201C150 201 120 201 90 201C60 201 30 201 15 201L0 201Z" fill="#5f7688"></path><path d="M0 104L15 102.8C30 101.7 60 99.3 90 105.3C120 111.3 150 125.7 180 123.5C210 121.3 240 102.7 270 95.5C300 88.3 330 92.7 360 94.3C390 96 420 95 450 98.8C480 102.7 510 111.3 540 117.7C570 124 600 128 630 122.3C660 116.7 690 101.3 720 94C750 86.7 780 87.3 810 95C840 102.7 870 117.3 885 124.7L900 132L900 201L885 201C870 201 840 201 810 201C780 201 750 201 720 201C690 201 660 201 630 201C600 201 570 201 540 201C510 201 480 201 450 201C420 201 390 201 360 201C330 201 300 201 270 201C240 201 210 201 180 201C150 201 120 201 90 201C60 201 30 201 15 201L0 201Z" fill="#7b8c9c"></path><path d="M0 101L15 103.3C30 105.7 60 110.3 90 110.7C120 111 150 107 180 106.5C210 106 240 109 270 111C300 113 330 114 360 119.8C390 125.7 420 136.3 450 142C480 147.7 510 148.3 540 147.2C570 146 600 143 630 137.7C660 132.3 690 124.7 720 124.7C750 124.7 780 132.3 810 133.5C840 134.7 870 129.3 885 126.7L900 124L900 201L885 201C870 201 840 201 810 201C780 201 750 201 720 201C690 201 660 201 630 201C600 201 570 201 540 201C510 201 480 201 450 201C420 201 390 201 360 201C330 201 300 201 270 201C240 201 210 201 180 201C150 201 120 201 90 201C60 201 30 201 15 201L0 201Z" fill="#97a2b0"></path><path d="M0 157L15 151.7C30 146.3 60 135.7 90 137C120 138.3 150 151.7 180 152C210 152.3 240 139.7 270 135.2C300 130.7 330 134.3 360 134.3C390 134.3 420 130.7 450 131.2C480 131.7 510 136.3 540 141.2C570 146 600 151 630 153.5C660 156 690 156 720 156C750 156 780 156 810 151.2C840 146.3 870 136.7 885 131.8L900 127L900 201L885 201C870 201 840 201 810 201C780 201 750 201 720 201C690 201 660 201 630 201C600 201 570 201 540 201C510 201 480 201 450 201C420 201 390 201 360 201C330 201 300 201 270 201C240 201 210 201 180 201C150 201 120 201 90 201C60 201 30 201 15 201L0 201Z" fill="#b3bac4"></path><path d="M0 154L15 154.3C30 154.7 60 155.3 90 158C120 160.7 150 165.3 180 164C210 162.7 240 155.3 270 155.8C300 156.3 330 164.7 360 164C390 163.3 420 153.7 450 152.7C480 151.7 510 159.3 540 161.2C570 163 600 159 630 157.7C660 156.3 690 157.7 720 158C750 158.3 780 157.7 810 157.2C840 156.7 870 156.3 885 156.2L900 156L900 201L885 201C870 201 840 201 810 201C780 201 750 201 720 201C690 201 660 201 630 201C600 201 570 201 540 201C510 201 480 201 450 201C420 201 390 201 360 201C330 201 300 201 270 201C240 201 210 201 180 201C150 201 120 201 90 201C60 201 30 201 15 201L0 201Z" fill="#ced2d8"></path><path d="M0 172L15 175C30 178 60 184 90 182.2C120 180.3 150 170.7 180 167.5C210 164.3 240 167.7 270 170.3C300 173 330 175 360 177.5C390 180 420 183 450 183.8C480 184.7 510 183.3 540 179.7C570 176 600 170 630 169.7C660 169.3 690 174.7 720 175C750 175.3 780 170.7 810 168.3C840 166 870 166 885 166L900 166L900 201L885 201C870 201 840 201 810 201C780 201 750 201 720 201C690 201 660 201 630 201C600 201 570 201 540 201C510 201 480 201 450 201C420 201 390 201 360 201C330 201 300 201 270 201C240 201 210 201 180 201C150 201 120 201 90 201C60 201 30 201 15 201L0 201Z" fill="#eaebed"></path></svg>